# xmcd
#
# Track frame offsets:
# 150
# 24013
# 45398
# 66148
# 88585
# 106783
# 133943
# 152515
# 185340
# 203888
# 221283
# 261593
#
# Disc length: 3762 seconds
#
#
# Revision: 0
# Processed by: cddbd v1.5.1PL2 Copyright (c) Steve Scherf et al.
# Submitted via: FreeRIP 2.942 
#
DISCID=9b0eb00c
DTITLE=B.B. King and Various - Blues Summit
DYEAR=1993
DGENRE=Blues
TTITLE0=Playin' with my Friends - Duet with Robert Cray
TTITLE1=Since I met you Baby - Duet with Katie Webster
TTITLE2=I Pity the Fool - Duet wiht Buddy Guy
TTITLE3=You Shook Me - Duet with John Lee Hooker
TTITLE4=Something You Got - Duet with Koko Taylor
TTITLE5=There;s Something on your Mind - Duet with Etta james
TTITLE6=Little By Little - Duet with Lowell Fulson
TTITLE7=Call it Stormy Monday - Duet with Albert Collins
TTITLE8=You're the Boss - Duet with Ruth Brown
TTITLE9=We're Gonna Make It - Duet with Irma Thomas)
TTITLE10=I gotta Move Out Of this Neighborhood/Nobody Loves Me but my Mother - B.B. King and Orchestra
TTITLE11=Everybody's Had The Blues - Duet with Louis Walker
EXTD=
EXTT0=
EXTT1=
EXTT2=
EXTT3=
EXTT4=
EXTT5=
EXTT6=
EXTT7=
EXTT8=
EXTT9=
EXTT10=
EXTT11=
PLAYORDER=
